<?xml version="1.0" encoding="utf-8"?>
<!-- Generator: Adobe Illustrator 16.0.0, SVG Export Plug-In . SVG Version: 6.00 Build 0)  -->
<!DOCTYPE svg PUBLIC "-//W3C//DTD SVG 1.1//EN" "http://www.w3.org/Graphics/SVG/1.1/DTD/svg11.dtd">
<svg version="1.1" id="Layer_1" xmlns="http://www.w3.org/2000/svg" xmlns:xlink="http://www.w3.org/1999/xlink" x="0px" y="0px"
	 width="615px" height="251px" viewBox="0 164.5 615 251" enable-background="new 0 164.5 615 251" xml:space="preserve">
<g>
	<g>
		<path d="M178.6,401.4L178.6,401.4c0-3.9,2.9-7.1,6.8-7.1c2.5,0,3.9,0.8,5.3,2.1l-1.1,1.1c-1.1-1.1-2.4-1.8-4.3-1.8
			c-3.1,0-5.3,2.5-5.3,5.6l0,0c0,3.2,2.2,5.6,5.3,5.6c1.8,0,3.1-0.7,4.4-1.9l1,1c-1.4,1.4-2.9,2.4-5.4,2.4
			C181.5,408.3,178.6,405.3,178.6,401.4z"/>
		<path d="M193.7,394h1.5v14.2h-1.5V394z"/>
		<path d="M198.5,403.2L198.5,403.2c0-2.9,2.2-5.3,5.3-5.3c3.1,0,5.3,2.4,5.3,5.1l0,0c0,2.8-2.2,5.3-5.3,5.3
			C200.7,408.3,198.5,406,198.5,403.2z M207.3,403.2L207.3,403.2c0-2.2-1.7-3.9-3.7-3.9c-2.2,0-3.6,1.8-3.6,3.9l0,0
			c0,2.1,1.5,3.9,3.7,3.9C205.8,407.1,207.3,405.3,207.3,403.2z"/>
		<path d="M211.8,404.3v-6.2h1.5v5.8c0,1.8,1,3.1,2.8,3.1c1.7,0,3.1-1.2,3.1-3.2v-5.7h1.5v10h-1.5v-1.8c-0.7,1.1-1.7,1.9-3.5,1.9
			C213.3,408.3,211.8,406.7,211.8,404.3z"/>
		<path d="M223.7,403.2L223.7,403.2c0-3.3,2.4-5.3,4.7-5.3c1.8,0,3.1,1,3.9,2.1v-6.1h1.5v14.2h-1.5V406c-0.8,1.2-1.9,2.2-3.9,2.2
			C226.1,408.3,223.7,406.4,223.7,403.2z M232.5,403.2L232.5,403.2c0-2.4-1.8-3.9-3.6-3.9c-1.9,0-3.5,1.4-3.5,3.9l0,0
			c0,2.4,1.7,3.9,3.5,3.9C230.7,406.9,232.5,405.4,232.5,403.2z"/>
		<path d="M242.3,403.2L242.3,403.2c0-2.9,2.2-5.3,5.1-5.3c1.9,0,3.1,0.8,4,1.8l-1,1.1c-0.8-0.8-1.7-1.5-3.1-1.5
			c-2.1,0-3.6,1.7-3.6,3.9l0,0c0,2.2,1.5,3.9,3.7,3.9c1.2,0,2.2-0.7,3.1-1.5l1,0.8c-1,1.1-2.2,1.9-4,1.9
			C244.6,408.3,242.3,406,242.3,403.2z"/>
		<path d="M253.6,403.2L253.6,403.2c0-2.9,2.2-5.3,5.3-5.3s5.3,2.4,5.3,5.1l0,0c0,2.8-2.2,5.3-5.3,5.3S253.6,406,253.6,403.2z
			 M262.5,403.2L262.5,403.2c0-2.2-1.7-3.9-3.7-3.9c-2.2,0-3.6,1.8-3.6,3.9l0,0c0,2.1,1.5,3.9,3.7,3.9
			C260.9,407.1,262.5,405.3,262.5,403.2z"/>
		<path d="M267,398.1h1.5v1.7c0.7-1,1.5-1.9,3.2-1.9c1.7,0,2.6,0.8,3.2,1.9c0.7-1.1,1.8-1.9,3.5-1.9c2.4,0,3.7,1.5,3.7,4v6.2h-1.5
			v-5.8c0-1.9-1-3.1-2.6-3.1c-1.5,0-2.8,1.1-2.8,3.1v5.8h-1.5v-5.8c0-1.9-1-3.1-2.6-3.1c-1.5,0-2.8,1.2-2.8,3.2v5.7h-1.5v-10H267
			L267,398.1z"/>
		<path d="M285.9,398.1h1.5v2.1c0.8-1.2,1.9-2.2,3.9-2.2c2.4,0,4.7,1.9,4.7,5.1l0,0c0,3.3-2.4,5.3-4.7,5.3c-1.8,0-3.1-1-3.9-2.1v5
			h-1.5V398.1z M294.5,403.2L294.5,403.2c0-2.4-1.7-3.9-3.5-3.9s-3.6,1.5-3.6,3.9l0,0c0,2.4,1.8,3.9,3.6,3.9
			C292.9,406.9,294.5,405.6,294.5,403.2z"/>
		<path d="M299,404.3v-6.2h1.5v5.8c0,1.8,1,3.1,2.8,3.1c1.7,0,3.1-1.2,3.1-3.2v-5.7h1.5v10h-1.5v-1.8c-0.7,1.1-1.7,1.9-3.5,1.9
			C300.4,408.3,299,406.7,299,404.3z"/>
		<path d="M312,405.4v-6.1h-1.4v-1.2h1.4V395h1.5v3.1h3.2v1.2h-3.2v5.8c0,1.2,0.7,1.7,1.7,1.7c0.6,0,1-0.1,1.4-0.4v1.2
			c-0.6,0.3-1.1,0.4-1.8,0.4C313.3,408.3,312,407.5,312,405.4z"/>
		<path d="M319.7,394.3h1.7v1.7h-1.7V394.3z M319.8,398.1h1.5v10h-1.5V398.1z"/>
		<path d="M325.2,398.1h1.5v1.8c0.7-1.1,1.7-1.9,3.5-1.9c2.4,0,3.9,1.7,3.9,4v6.2h-1.7v-5.8c0-1.8-1-3.1-2.8-3.1
			c-1.7,0-3.1,1.2-3.1,3.2v5.7H325v-10.1H325.2z"/>
		<path d="M337.4,409.9l0.7-1.1c1.1,0.8,2.4,1.2,3.9,1.2c2.2,0,3.6-1.2,3.6-3.6v-1.2c-0.8,1.1-2.1,2.1-3.9,2.1
			c-2.4,0-4.7-1.8-4.7-4.7l0,0c0-2.9,2.4-4.7,4.7-4.7c1.9,0,3.1,1,3.9,2.1v-1.8h1.5v8.3c0,1.5-0.4,2.8-1.2,3.6
			c-0.8,0.8-2.2,1.4-3.9,1.4C340.2,411.2,338.7,410.8,337.4,409.9z M345.6,402.6L345.6,402.6c0-2.1-1.8-3.5-3.7-3.5
			c-1.9,0-3.5,1.4-3.5,3.3l0,0c0,2.1,1.7,3.5,3.5,3.5C343.8,406.1,345.6,404.7,345.6,402.6z"/>
		<path d="M356.7,399.4h-1.4v-1.2h1.4v-0.8c0-1.1,0.3-2.1,0.8-2.6s1.2-0.8,2.1-0.8c0.7,0,1.1,0.1,1.7,0.3v1.2
			c-0.6-0.1-1-0.3-1.4-0.3c-1.1,0-1.8,0.7-1.8,2.1v0.8h3.2v1.2h-3.2v8.7h-1.5v-8.6H356.7z"/>
		<path d="M362.8,403.2L362.8,403.2c0-2.9,2.2-5.3,5.3-5.3c3.1,0,5.3,2.4,5.3,5.1l0,0c0,2.8-2.2,5.3-5.3,5.3
			C365,408.3,362.8,406,362.8,403.2z M371.7,403.2L371.7,403.2c0-2.2-1.7-3.9-3.7-3.9c-2.2,0-3.6,1.8-3.6,3.9l0,0
			c0,2.1,1.5,3.9,3.7,3.9C370.2,407.1,371.7,405.3,371.7,403.2z"/>
		<path d="M376.3,398.1h1.5v2.6c0.7-1.7,2.2-2.9,4-2.8v1.7h-0.1c-2.2,0-4,1.5-4,4.6v4h-1.5L376.3,398.1L376.3,398.1L376.3,398.1z"/>
		<path d="M389.4,403.2L389.4,403.2c0-2.9,2.2-5.3,5.1-5.3c1.9,0,3.1,0.8,4,1.8l-1,1.1c-0.8-0.8-1.7-1.5-3.1-1.5
			c-2.1,0-3.6,1.7-3.6,3.9l0,0c0,2.2,1.5,3.9,3.7,3.9c1.2,0,2.2-0.7,3.1-1.5l1,0.8c-1,1.1-2.2,1.9-4,1.9
			C391.6,408.3,389.4,406,389.4,403.2z"/>
		<path d="M400.6,403.2L400.6,403.2c0-2.9,2.2-5.3,5.3-5.3c3.1,0,5.3,2.4,5.3,5.1l0,0c0,2.8-2.2,5.3-5.3,5.3
			C402.8,408.3,400.6,406,400.6,403.2z M409.5,403.2L409.5,403.2c0-2.2-1.7-3.9-3.7-3.9c-2.2,0-3.6,1.8-3.6,3.9l0,0
			c0,2.1,1.5,3.9,3.7,3.9C408,407.1,409.5,405.3,409.5,403.2z"/>
		<path d="M414.2,394h1.5v14.2h-1.5V394z"/>
		<path d="M419.8,394h1.5v14.2h-1.5V394z"/>
		<path d="M424.3,405.3L424.3,405.3c0-2.2,1.8-3.3,4.3-3.3c1.2,0,2.2,0.1,3.1,0.4v-0.3c0-1.8-1.1-2.8-2.9-2.8
			c-1.2,0-2.1,0.3-3.1,0.7l-0.4-1.2c1.1-0.6,2.2-0.8,3.6-0.8c1.4,0,2.5,0.4,3.2,1.1c0.7,0.7,1.1,1.7,1.1,2.9v6.1h-1.5v-1.5
			c-0.7,0.8-1.8,1.7-3.6,1.7C426.2,408.3,424.3,407.2,424.3,405.3z M431.7,404.4v-1c-0.7-0.3-1.7-0.4-2.9-0.4
			c-1.8,0-2.9,0.8-2.9,2.1l0,0c0,1.2,1.1,1.9,2.5,1.9C430.2,407.1,431.7,406.1,431.7,404.4z"/>
		<path d="M438.2,406.2v1.9h-1.5V394h1.5v6.1c0.8-1.2,1.9-2.2,3.9-2.2c2.4,0,4.7,1.9,4.7,5.1l0,0c0,3.3-2.4,5.3-4.7,5.3
			C440.2,408.3,438.9,407.4,438.2,406.2z M445.3,403.2L445.3,403.2c0-2.4-1.7-3.9-3.5-3.9s-3.6,1.5-3.6,3.9l0,0
			c0,2.4,1.8,3.9,3.6,3.9C443.6,406.9,445.3,405.6,445.3,403.2z"/>
		<path d="M449.3,403.2L449.3,403.2c0-2.9,2.2-5.3,5.3-5.3c3.1,0,5.3,2.4,5.3,5.1l0,0c0,2.8-2.2,5.3-5.3,5.3
			C451.5,408.3,449.3,406,449.3,403.2z M458.2,403.2L458.2,403.2c0-2.2-1.7-3.9-3.7-3.9c-2.2,0-3.6,1.8-3.6,3.9l0,0
			c0,2.1,1.5,3.9,3.7,3.9C456.7,407.1,458.2,405.3,458.2,403.2z"/>
		<path d="M462.8,398.1h1.5v2.6c0.7-1.7,2.2-2.9,4-2.8v1.7h-0.1c-2.2,0-4,1.5-4,4.6v4h-1.5L462.8,398.1L462.8,398.1L462.8,398.1z"/>
		<path d="M469.9,405.3L469.9,405.3c0-2.2,1.8-3.3,4.3-3.3c1.2,0,2.2,0.1,3.1,0.4v-0.3c0-1.8-1.1-2.8-2.9-2.8
			c-1.2,0-2.1,0.3-3.1,0.7l-0.4-1.2c1.1-0.6,2.2-0.8,3.6-0.8s2.5,0.4,3.2,1.1c0.7,0.7,1.1,1.7,1.1,2.9v6.1h-1.5v-1.5
			c-0.7,0.8-1.8,1.7-3.6,1.7C471.7,408.3,469.9,407.2,469.9,405.3z M477.2,404.4v-1c-0.7-0.3-1.7-0.4-2.9-0.4
			c-1.8,0-2.9,0.8-2.9,2.1l0,0c0,1.2,1.1,1.9,2.5,1.9C475.7,407.1,477.2,406.1,477.2,404.4z"/>
		<path d="M482.7,405.4v-6.1h-1.4v-1.2h1.4V395h1.5v3.1h3.2v1.2h-3.2v5.8c0,1.2,0.7,1.7,1.7,1.7c0.6,0,1-0.1,1.4-0.4v1.2
			c-0.6,0.3-1.1,0.4-1.8,0.4C483.9,408.3,482.7,407.5,482.7,405.4z"/>
		<path d="M490.3,394.3h1.7v1.7h-1.7V394.3z M490.4,398.1h1.5v10h-1.5V398.1z"/>
		<path d="M494.9,398.1h1.7l3.3,8.3l3.3-8.3h1.7l-4.3,10.1h-1.2L494.9,398.1z"/>
		<path d="M511.4,407.1c1.4,0,2.4-0.6,3.2-1.4l1,0.8c-1,1.1-2.2,1.9-4.2,1.9c-2.8,0-5-2.1-5-5.3c0-2.9,2.1-5.3,4.9-5.3
			c2.9,0,4.7,2.4,4.7,5.3c0,0.1,0,0.3,0,0.6h-7.9C508.1,405.8,509.6,407.1,511.4,407.1z M514.3,402.5c-0.1-1.8-1.2-3.3-3.2-3.3
			c-1.7,0-3.1,1.4-3.2,3.3H514.3z"/>
		<path d="M524.3,398.1h1.5v2.6c0.7-1.7,2.2-2.9,4-2.8v1.7h-0.1c-2.2,0-4,1.5-4,4.6v4h-1.5L524.3,398.1L524.3,398.1L524.3,398.1z"/>
		<path d="M536.5,407.1c1.4,0,2.4-0.6,3.2-1.4l1,0.8c-1,1.1-2.2,1.9-4.2,1.9c-2.8,0-5-2.1-5-5.3c0-2.9,2.1-5.3,4.9-5.3
			c2.9,0,4.7,2.4,4.7,5.3c0,0.1,0,0.3,0,0.6h-7.9C533.2,405.8,534.7,407.1,536.5,407.1z M539.4,402.5c-0.1-1.8-1.2-3.3-3.2-3.3
			c-1.7,0-3.1,1.4-3.2,3.3H539.4z"/>
		<path d="M543.1,406.8l0.7-1.1c1.1,0.8,2.2,1.2,3.5,1.2s2.1-0.6,2.1-1.5l0,0c0-1-1.2-1.4-2.5-1.8c-1.5-0.4-3.3-1-3.3-2.8l0,0
			c0-1.7,1.4-2.9,3.5-2.9c1.2,0,2.6,0.4,3.6,1.1l-0.7,1.1c-1-0.6-1.9-1-2.9-1c-1.2,0-1.9,0.6-1.9,1.4l0,0c0,1,1.2,1.2,2.6,1.7
			c1.5,0.4,3.2,1.1,3.2,2.9l0,0c0,1.9-1.5,3.1-3.6,3.1C545.8,408.3,544.2,407.8,543.1,406.8z"/>
		<path d="M558.3,407.1c1.4,0,2.4-0.6,3.2-1.4l1,0.8c-1,1.1-2.2,1.9-4.2,1.9c-2.8,0-5-2.1-5-5.3c0-2.9,2.1-5.3,4.9-5.3
			c2.9,0,4.7,2.4,4.7,5.3c0,0.1,0,0.3,0,0.6H555C555.1,405.8,556.7,407.1,558.3,407.1z M561.4,402.5c-0.1-1.8-1.2-3.3-3.2-3.3
			c-1.7,0-3.1,1.4-3.2,3.3H561.4z"/>
		<path d="M565.1,405.3L565.1,405.3c0-2.2,1.8-3.3,4.3-3.3c1.2,0,2.2,0.1,3.1,0.4v-0.3c0-1.8-1.1-2.8-2.9-2.8
			c-1.2,0-2.1,0.3-3.1,0.7l-0.4-1.2c1.1-0.6,2.2-0.8,3.6-0.8c1.4,0,2.5,0.4,3.2,1.1c0.7,0.7,1.1,1.7,1.1,2.9v6.1h-1.5v-1.5
			c-0.7,0.8-1.8,1.7-3.6,1.7C566.9,408.3,565.1,407.2,565.1,405.3z M572.5,404.4v-1c-0.7-0.3-1.7-0.4-2.9-0.4
			c-1.8,0-2.9,0.8-2.9,2.1l0,0c0,1.2,1.1,1.9,2.5,1.9C571,407.1,572.5,406.1,572.5,404.4z"/>
		<path d="M577.5,398.1h1.5v2.6c0.7-1.7,2.2-2.9,4-2.8v1.7h-0.1c-2.2,0-4,1.5-4,4.6v4h-1.5L577.5,398.1L577.5,398.1L577.5,398.1z"/>
		<path d="M584.6,403.2L584.6,403.2c0-2.9,2.2-5.3,5.1-5.3c1.9,0,3.1,0.8,4,1.8l-1,1.1c-0.8-0.8-1.7-1.5-3.1-1.5
			c-2.1,0-3.6,1.7-3.6,3.9l0,0c0,2.2,1.5,3.9,3.7,3.9c1.2,0,2.2-0.7,3.1-1.5l1,0.8c-1,1.1-2.2,1.9-4,1.9
			C586.8,408.3,584.6,406,584.6,403.2z"/>
		<path d="M596.6,394h1.5v5.8c0.7-1.1,1.7-1.9,3.5-1.9c2.4,0,3.9,1.7,3.9,4v6.2H604v-5.8c0-1.8-1-3.1-2.8-3.1
			c-1.7,0-3.1,1.2-3.1,3.2v5.7h-1.5V394L596.6,394z"/>
	</g>
	<g>
		<g>
			<rect x="138.3" y="289.8" fill="#999999" width="22.2" height="84.7"/>
		</g>
		<g>
			<path fill="#C1272D" d="M176.8,307.5L176.8,307.5c0-10.1,7.8-18,18.2-18c7.1,0,11.5,2.9,14.6,7.2l-7.2,5.6c-1.9-2.5-4.2-4-7.5-4
				c-4.9,0-8.2,4-8.2,9.2v0.1c0,5.1,3.3,9.2,8.2,9.2c3.6,0,5.7-1.7,7.8-4.2l7.2,5.1c-3.2,4.4-7.6,7.8-15.3,7.8
				C184.7,325.3,176.8,317.8,176.8,307.5z"/>
			<path fill="#C1272D" d="M211.1,317L211.1,317c0-5.6,4.2-8.5,10.4-8.5c2.5,0,4.9,0.6,6.4,1v-0.4c0-2.8-1.7-4.3-5.3-4.3
				c-2.8,0-5,0.6-7.4,1.5l-1.9-6.5c3.1-1.2,6.2-2.1,10.8-2.1c4.7,0,8.1,1.1,10.1,3.2c2.1,1.9,2.9,4.7,2.9,8.5v15.3h-9.3v-2.8
				c-1.8,2.1-4.3,3.3-7.8,3.3C215,325.3,211.1,322.4,211.1,317z M227.9,315v-1.2c-1-0.4-2.2-0.7-3.6-0.7c-2.6,0-4.3,1.4-4.3,3.3v0.1
				c0,1.8,1.4,2.9,3.3,2.9C226.1,319.5,227.9,317.7,227.9,315z"/>
			<path fill="#C1272D" d="M240.8,298.1h9.3v3.7c1.7-2.2,4.2-4.3,7.9-4.3c5.7,0,9,3.7,9,9.9v17.4h-9.3v-14.4c0-2.9-1.5-4.4-3.7-4.4
				s-3.9,1.5-3.9,4.4v14.4h-9.3V298.1z"/>
			<path fill="#C1272D" d="M270,311.4L270,311.4c0-7.6,5.8-14,14.3-14c5.4,0,9.2,2.4,11.4,6l-6.4,4.7c-1.2-1.8-2.6-2.8-5-2.8
				c-3.1,0-5.3,2.6-5.3,6v0.1c0,3.5,2.2,6.1,5.3,6.1c2.2,0,3.6-1,5.1-2.8l6.2,4.6c-2.5,3.6-6,6.1-11.8,6.1
				C275.9,325.3,270,319.1,270,311.4z"/>
			<path fill="#C1272D" d="M296.2,311.4L296.2,311.4c0-7.9,5.6-14,13.5-14c9.2,0,13.5,6.8,13.5,14.6c0,0.6,0,1.2,0,1.9h-17.8
				c0.7,2.9,2.9,4.4,5.7,4.4c2.2,0,4-0.8,6-2.6l5.1,4.3c-2.5,3.2-6.2,5.4-11.5,5.4C302.2,325.3,296.2,319.8,296.2,311.4z
				 M314.4,309.2c-0.3-2.9-2.1-4.9-4.6-4.9s-4.2,1.9-4.6,4.9H314.4z"/>
			<path fill="#C1272D" d="M326,298.1h9.3v5.4c1.5-3.6,4-6,8.5-5.8v9.9H343c-4.9,0-7.6,2.8-7.6,8.9v8.3H326V298.1z"/>
			<path fill="#4D4D4D" d="M356.2,307.5L356.2,307.5c0-10.1,7.9-18,18.6-18c6.1,0,10.3,1.8,14,5l-5.6,6.8c-2.5-2.1-4.9-3.2-8.3-3.2
				c-5,0-8.7,4.2-8.7,9.4v0.1c0,5.6,3.9,9.6,9.3,9.6c2.4,0,4-0.6,5.6-1.4v-4.2h-6.9v-6.9H390v15.5c-3.6,3.1-8.7,5.3-15,5.3
				C364.2,325.3,356.2,317.9,356.2,307.5z"/>
			<path fill="#4D4D4D" d="M392.6,311.4L392.6,311.4c0-7.9,5.6-14,13.5-14c9.2,0,13.5,6.8,13.5,14.6c0,0.6,0,1.2,0,1.9h-17.8
				c0.7,2.9,2.9,4.4,5.7,4.4c2.2,0,4-0.8,6-2.6l5.1,4.3c-2.5,3.2-6.2,5.4-11.5,5.4C398.5,325.3,392.6,319.8,392.6,311.4z
				 M410.7,309.2c-0.3-2.9-2.1-4.9-4.6-4.9s-4.2,1.9-4.6,4.9H410.7z"/>
			<path fill="#4D4D4D" d="M422.4,298.1h9.3v3.7c1.7-2.2,4.2-4.3,7.9-4.3c5.7,0,9,3.7,9,9.9v17.4h-9.3v-14.4c0-2.9-1.5-4.4-3.7-4.4
				c-2.2,0-3.9,1.5-3.9,4.4v14.4h-9.3V298.1z"/>
			<path fill="#4D4D4D" d="M451.6,311.4L451.6,311.4c0-7.6,6.2-14,14.7-14s14.7,6.2,14.7,13.9v0.1c0,7.6-6.2,13.9-14.7,13.9
				C457.7,325.3,451.6,319.1,451.6,311.4z M471.8,311.4L471.8,311.4c0-3.3-2.4-6.1-5.7-6.1c-3.3,0-5.6,2.6-5.6,6v0.1
				c0,3.2,2.4,6,5.7,6C469.7,317.4,471.8,314.6,471.8,311.4z"/>
			<path fill="#4D4D4D" d="M482.9,298.1h9.3v3.6c1.7-2.2,4.2-4.2,7.9-4.2c3.6,0,6.2,1.5,7.6,4.3c2.4-2.6,5-4.3,8.9-4.3
				c5.7,0,9.2,3.6,9.2,9.7v17.5h-9.3v-14.4c0-2.9-1.4-4.4-3.6-4.4c-2.2,0-3.9,1.5-3.9,4.4v14.4h-9.3v-14.4c0-2.9-1.4-4.4-3.6-4.4
				c-2.2,0-3.7,1.5-3.7,4.4v14.4h-9.3V298L482.9,298.1L482.9,298.1z"/>
			<path fill="#4D4D4D" d="M528.6,311.4L528.6,311.4c0-7.9,5.6-14,13.5-14c9.2,0,13.5,6.8,13.5,14.6c0,0.6,0,1.2,0,1.9h-17.8
				c0.7,2.9,2.9,4.4,5.7,4.4c2.2,0,4-0.8,6-2.6l5.1,4.3c-2.5,3.2-6.2,5.4-11.5,5.4C534.6,325.3,528.6,319.8,528.6,311.4z
				 M546.8,309.2c-0.3-2.9-2.1-4.9-4.6-4.9s-4.2,1.9-4.6,4.9H546.8z"/>
			<path fill="#4D4D4D" d="M176.8,355.9L176.8,355.9c0-10.1,7.8-18,18.2-18c7.1,0,11.5,2.9,14.6,7.2l-7.2,5.6c-1.9-2.5-4.2-4-7.5-4
				c-4.9,0-8.2,4-8.2,9.2v0.1c0,5.1,3.3,9.2,8.2,9.2c3.6,0,5.7-1.7,7.8-4.2l7.2,5.1c-3.2,4.4-7.6,7.8-15.3,7.8
				C184.7,373.6,176.8,366.1,176.8,355.9z"/>
			<path fill="#4D4D4D" d="M209.7,355.9L209.7,355.9c0-10,7.9-18,18.6-18c10.7,0,18.5,7.9,18.5,17.8v0.1c0,9.9-7.9,17.9-18.6,17.9
				C217.6,373.6,209.7,365.7,209.7,355.9z M237.1,355.9L237.1,355.9c0-5-3.6-9.4-8.9-9.4c-5.3,0-8.7,4.2-8.7,9.2v0.1
				c0,5,3.6,9.3,8.7,9.3C233.6,365,237.1,360.8,237.1,355.9z"/>
			<path fill="#4D4D4D" d="M249.8,338.5h9.6v26.1h16.7v8.3h-26.2v-34.4H249.8z"/>
			<path fill="#4D4D4D" d="M279.1,338.5h9.6v26.1h16.7v8.3h-26.2v-34.4H279.1z"/>
			<path fill="#4D4D4D" d="M319.4,338.2h9.2l14.7,34.7H333l-2.5-6.1h-13.3l-2.5,6.1h-10L319.4,338.2z M327.7,359.3l-3.9-9.9
				l-3.9,9.9H327.7z"/>
			<path fill="#4D4D4D" d="M345.6,338.5h17.6c4.3,0,7.4,1.1,9.4,3.1c1.4,1.4,2.2,3.2,2.2,5.6v0.1c0,4-2.2,6.4-5.3,7.6
				c4.2,1.4,6.8,3.7,6.8,8.5v0.1c0,6-4.9,9.4-13.1,9.4h-17.8v-34.4H345.6z M360.9,352.2c2.9,0,4.6-1,4.6-3.1V349
				c0-1.8-1.5-2.9-4.3-2.9H355v6.1H360.9L360.9,352.2z M362.3,365.3c2.9,0,4.6-1.1,4.6-3.2V362c0-1.8-1.5-3.1-4.7-3.1H355v6.4H362.3
				z"/>
			<path fill="#4D4D4D" d="M377.7,355.9L377.7,355.9c0-10,7.9-18,18.6-18s18.5,7.9,18.5,17.8v0.1c0,9.9-7.9,17.9-18.6,17.9
				S377.7,365.7,377.7,355.9z M405,355.9L405,355.9c0-5-3.6-9.4-8.9-9.4c-5.3,0-8.7,4.2-8.7,9.2v0.1c0,5,3.6,9.3,8.7,9.3
				C401.4,365,405,360.8,405,355.9z"/>
			<path fill="#4D4D4D" d="M416.7,338.5H433c5.3,0,8.9,1.4,11.2,3.7c2.1,1.9,3.1,4.6,3.1,8.1v0.1c0,5.3-2.8,8.7-7.1,10.6l8.2,11.9
				h-11l-6.9-10.4h-4.2v10.4h-9.6V338.5L416.7,338.5z M432.5,355c3.2,0,5.1-1.5,5.1-4v-0.1c0-2.6-1.9-4-5.1-4h-6.2v8.3h6.2V355z"/>
			<path fill="#4D4D4D" d="M461.4,338.2h9.2l14.7,34.7H475l-2.5-6.1h-13.3l-2.5,6.1h-10L461.4,338.2z M469.7,359.3l-3.9-9.9
				l-3.9,9.9H469.7z"/>
			<path fill="#4D4D4D" d="M490.6,346.8h-10.3v-8.3h30.3v8.3h-10.3v26.1h-9.6v-26.1H490.6z"/>
			<path fill="#4D4D4D" d="M509,355.9L509,355.9c0-10,7.9-18,18.6-18c10.7,0,18.5,7.9,18.5,17.8v0.1c0,9.9-7.9,17.9-18.6,17.9
				C517,373.6,509,365.7,509,355.9z M536.4,355.9L536.4,355.9c0-5-3.6-9.4-8.9-9.4s-8.7,4.2-8.7,9.2v0.1c0,5,3.6,9.3,8.7,9.3
				C532.9,365,536.4,360.8,536.4,355.9z"/>
			<path fill="#4D4D4D" d="M549.2,338.5h16.2c5.3,0,8.9,1.4,11.2,3.7c2.1,1.9,3.1,4.6,3.1,8.1v0.1c0,5.3-2.8,8.7-7.1,10.6l8.2,11.9
				h-11l-6.9-10.4h-4.2v10.4h-9.6v-34.4H549.2z M565,355c3.2,0,5.1-1.5,5.1-4v-0.1c0-2.6-1.9-4-5.1-4h-6.2v8.3h6.2V355z"/>
			<path fill="#4D4D4D" d="M591.2,360l-13.1-21.5H589l7.1,12.5l7.1-12.5h10.7l-13.1,21.4V373h-9.6V360z"/>
		</g>
		<g>
			<path fill="#C1272D" d="M39.1,203c-21.8,21.8-34.4,50.1-35.7,81.5h22.2c1.2-25.4,11.5-48.2,29.2-65.8
				c18.6-18.6,43.6-29.2,70-29.4v-22.4C92.4,167.2,62,180.1,39.1,203z"/>
			<path fill="#FFFFFF" d="M27,285.9H2v-1.4c1.4-31.7,13.7-60.3,36.1-82.6c23.3-23.2,54-36.1,86.6-36.4h1.4v25.1h-1.4
				c-26,0.1-50.5,10.6-69,29c-17.5,17.5-27.5,40-28.7,64.8V285.9z M4.9,283.1h19.4c1.5-25.1,11.7-47.6,29.4-65.4
				c18.6-18.6,43.3-29.2,69.6-29.7v-19.7C92,168.8,62.5,181.5,40,203.8C18.7,225.3,6.4,252.7,4.9,283.1z"/>
		</g>
		<g>
			<path fill="#ED1C24" d="M54.8,359.6c-17.5-17.5-27.6-40.1-29.2-64.7H3.4c1.4,30.5,14,58.9,35.7,80.5
				c22.9,22.9,53.3,35.5,85.7,35.8v-22.4C98.4,388.6,73.5,378.3,54.8,359.6z"/>
			<path fill="#FFFFFF" d="M126.1,412.5h-1.4c-32.8-0.1-63.4-13.1-86.6-36.1c-21.8-21.8-34.6-50.7-36-81.5v-1.4h25l0.1,1.2
				c1.4,24.4,11.4,46.5,28.7,63.9c18.3,18.3,42.9,28.6,69,28.7h1.4v25.1L126.1,412.5L126.1,412.5z M4.9,296.3
				c1.8,29.4,14.2,57.2,35.1,78.2c22.2,22.2,51.8,34.8,83.3,35.4v-19.6c-26.4-0.6-51-11-69.6-29.6c-17.5-17.5-27.6-39.7-29.4-64.3
				H4.9V296.3z"/>
		</g>
		<g>
			
				<linearGradient id="SVGID_1_" gradientUnits="userSpaceOnUse" x1="29.3066" y1="-13.8628" x2="91.7205" y2="-13.8628" gradientTransform="matrix(1.3884 0 0 1.3884 -0.3885 308.4479)">
				<stop  offset="0" style="stop-color:#666666"/>
				<stop  offset="1" style="stop-color:#B3B3B3"/>
			</linearGradient>
			<path fill="url(#SVGID_1_)" d="M62.5,289.1c0-34.4,27.9-62.5,62.2-62.9V204c-22.5,0.1-43.6,9-59.4,24.9
				c-16.1,16.1-25,37.5-25,60.3s8.9,44.2,24.9,60.3c15.8,15.8,37.1,24.7,59.4,24.9V352C90.4,351.5,62.5,323.5,62.5,289.1z"/>
			<path fill="#FFFFFF" d="M126.1,375.6h-1.4c-22.9-0.3-44.3-9.2-60.4-25.3c-16.4-16.4-25.4-38.2-25.4-61.2s9-44.8,25.4-61.2
				c16.1-16.1,37.6-25.1,60.4-25.3h1.4v25h-1.4c-33.5,0.4-60.8,28-60.8,61.5s27.2,61.1,60.8,61.5h1.4V375.6z M123.3,205.3
				c-21.5,0.6-41.8,9.2-57.1,24.4c-15.8,15.8-24.6,36.9-24.6,59.3s8.7,43.5,24.4,59.3c15.3,15.3,35.5,23.9,57.1,24.4v-19.4
				C88.8,352.2,61,323.6,61,289.1c0-34.6,27.8-63,62.2-64.3v-19.4h0.1V205.3z"/>
		</g>
		<g>
			<path fill="#29ABE2" d="M100.3,294.9H77.8c2.9,23.6,22.8,42.1,47.1,42.5v-22.5C112.8,314.6,102.9,306.6,100.3,294.9z"/>
			<path fill="#FFFFFF" d="M126.1,338.8h-1.4c-24.6-0.4-45.4-19.2-48.3-43.7l-0.1-1.5h25.3l0.3,1.1c2.5,11,11.8,18.6,23.2,18.9h1.4
				v25.3h-0.4V338.8z M79.3,296.3c3.5,21.9,21.9,38.6,44,39.7v-19.7c-11.7-0.8-21.2-8.7-24.2-20H79.3z"/>
		</g>
		<g>
			<path fill="#3FA9F5" d="M77.7,284.5h22.5c2.4-12.4,12.5-20.7,24.7-21.1v-22.2C100.3,241.6,80.2,260.2,77.7,284.5z"/>
			<path fill="#FFFFFF" d="M101.3,285.9H76.1l0.1-1.5c2.6-25,23.5-44,48.5-44.4h1.4v25h-1.4c-11.8,0.4-21.1,8.3-23.3,19.9
				L101.3,285.9z M79.2,283.1h19.7c2.8-11.8,12.4-20.1,24.4-21v-19.4C100.9,243.7,82.2,260.7,79.2,283.1z"/>
		</g>
	</g>
</g>
</svg>
